<?xml version="1.0" standalone="no"?><!DOCTYPE svg PUBLIC "-//W3C//DTD SVG 1.1//EN" "http://www.w3.org/Graphics/SVG/1.1/DTD/svg11.dtd"><svg t="1577925955790" class="icon" viewBox="0 0 1024 1024" version="1.1" xmlns="http://www.w3.org/2000/svg" p-id="12648" xmlns:xlink="http://www.w3.org/1999/xlink" width="64" height="64"><defs><style type="text/css"></style></defs><path d="M120.761379 988.689655v-300.844138h61.228138v249.750069h152.293517V988.689655H120.761379z m244.771311-149.786483c0-30.896552 4.590345-56.849655 13.841655-77.788689 6.885517-15.465931 16.313379-29.307586 28.248276-41.595586a118.077793 118.077793 0 0 1 39.194482-27.294897c18.891034-8.015448 40.712828-12.005517 65.394759-12.005517 44.667586 0 80.436966 13.841655 107.272828 41.560276 26.835862 27.753931 40.253793 66.277517 40.253793 115.676689 0 48.975448-13.312 87.251862-39.936 114.935173-26.624 27.648-62.216828 41.454345-106.778483 41.454345-45.09131 0-80.966621-13.771034-107.590621-41.242483-26.58869-27.542069-39.90069-65.430069-39.900689-113.699311z m63.099586-2.08331c0 34.356966 7.909517 60.38069 23.799172 78.106483 15.854345 17.725793 35.981241 26.58869 60.38069 26.588689 24.434759 0 44.491034-8.792276 60.133517-26.376827 15.642483-17.584552 23.481379-43.961379 23.481379-79.130483 0-34.78069-7.627034-60.698483-22.881103-77.78869-15.218759-17.125517-35.486897-25.670621-60.733793-25.67062-25.211586 0-45.550345 8.651034-61.016276 25.953103-15.465931 17.302069-23.163586 43.431724-23.163586 78.318345z m419.981241 40.359724v-51.094069h131.990069v120.79669c-12.817655 12.429241-31.426207 23.375448-55.755034 32.838621a202.928552 202.928552 0 0 1-73.939862 14.124138c-31.744 0-59.392-6.638345-82.979311-19.950345a126.94069 126.94069 0 0 1-53.177379-57.096828 184.531862 184.531862 0 0 1-17.796414-80.790069c0-31.602759 6.638345-59.674483 19.879724-84.215172a133.755586 133.755586 0 0 1 58.120828-56.496552c19.456-10.063448 43.678897-15.077517 72.633379-15.077517 37.640828 0 67.089655 7.874207 88.240552 23.657931 21.186207 15.819034 34.78069 37.640828 40.854069 65.500689l-60.839724 11.369931a64.264828 64.264828 0 0 0-24.081655-35.275034c-11.793655-8.615724-26.518069-12.923586-44.173242-12.923586-26.765241 0-48.022069 8.474483-63.841103 25.423448-15.783724 16.984276-23.657931 42.160552-23.657931 75.564138 0 35.981241 7.980138 62.993655 24.011034 80.966621 15.960276 18.008276 36.934621 27.012414 62.852414 27.012413 12.852966 0 25.705931-2.507034 38.594207-7.556413 12.888276-5.014069 23.975724-11.122759 33.191724-18.290759v-38.488276h-70.126345z" fill="#855fcd" p-id="12649"></path><path d="M158.896552 211.862069l564.965517 0 0 70.62069-564.965517 0 0-70.62069Z" fill="#855fcd" p-id="12650"></path><path d="M158.896552 423.724138l564.965517 0 0 70.62069-564.965517 0 0-70.62069Z" fill="#855fcd" p-id="12651"></path><path d="M754.228966 0H122.88C64.865103 0 17.655172 54.625103 17.655172 117.230345v757.124414s1.05931 89.652966 0 113.558069h70.161656c0.388414-36.722759 0-86.157241 0-106.990345V106.354759c0-20.903724 15.748414-37.85269 35.063172-37.85269h631.348966c19.350069 0 40.430345 16.948966 40.430344 37.85269v529.302069h70.161656V117.230345c0-62.605241-52.577103-117.230345-110.592-117.230345z" fill="#855fcd" p-id="12652"></path></svg>