<?xml version="1.0" encoding="utf-8"?>
<!-- Generator: Adobe Illustrator 17.0.0, SVG Export Plug-In . SVG Version: 6.00 Build 0)  -->
<!DOCTYPE svg PUBLIC "-//W3C//DTD SVG 1.1//EN" "http://www.w3.org/Graphics/SVG/1.1/DTD/svg11.dtd">
<svg version="1.1" id="Capa_1" xmlns="http://www.w3.org/2000/svg" xmlns:xlink="http://www.w3.org/1999/xlink" x="0px" y="0px"
	 width="142px" height="142px" viewBox="0 0 142 142" enable-background="new 0 0 142 142" xml:space="preserve">
<g>
	<g>
		<path fill="#E3EAF2" d="M52.812,113.841c-2.405,0-4.409-1.102-4.91-3.407l-6.714-32.068l-4.409,7.616
			c-0.902,1.503-2.606,2.606-4.309,2.606H8.017c-2.806,0-5.011-2.305-5.011-5.011c0-2.806,2.305-5.011,5.011-5.011h21.445
			l9.62-16.134c1.102-1.804,3.107-2.806,5.211-2.405c2.004,0.301,3.708,1.904,4.109,3.908l4.008,19.541l9.219-51.208
			c0.401-2.405,2.505-4.109,5.011-4.109l0,0c2.405,0,4.51,1.704,4.91,4.109l9.821,57.522l3.207-8.017
			c0.802-1.904,2.605-3.207,4.71-3.207h44.694c2.806,0,5.011,2.205,5.011,5.011s-2.205,5.011-5.011,5.011H92.696l-8.518,21.646
			c-0.802,2.104-2.906,3.407-5.211,3.207c-2.205-0.2-4.008-1.904-4.409-4.209l-8.017-46.999l-8.718,48.102
			C57.321,112.638,55.217,113.841,52.812,113.841L52.812,113.841z"/>
	</g>
</g>
</svg>
