<?xml version="1.0" standalone="no"?><!DOCTYPE svg PUBLIC "-//W3C//DTD SVG 1.1//EN" "http://www.w3.org/Graphics/SVG/1.1/DTD/svg11.dtd"><svg t="1577931275275" class="icon" viewBox="0 0 1024 1024" version="1.1" xmlns="http://www.w3.org/2000/svg" p-id="13831" xmlns:xlink="http://www.w3.org/1999/xlink" width="64" height="64"><defs><style type="text/css"></style></defs><path d="M693.6 573.4H517.8c-3.2 0-5.8 2.6-5.8 5.8v113c0 3.2 2.6 5.8 5.8 5.8h175.8c3.2 0 5.8-2.6 5.8-5.8v-113c0-3.2-2.6-5.8-5.8-5.8z" p-id="13832" fill="#bfbfbf"></path><path d="M931.7 467.9c6.5 18.4 24.1 31.6 44.8 31.6 26.2 0 47.5-21.3 47.5-47.5s-21.3-47.5-47.5-47.5c-20.7 0-38.2 13.2-44.8 31.6H859V348h72.7c6.5 18.4 24.1 31.6 44.8 31.6 26.2 0 47.5-21.3 47.5-47.5s-21.3-47.5-47.5-47.5c-20.7 0-38.2 13.2-44.8 31.6H859v-76.9c0-46.4-37.6-84-84-84h-74.8V92.4c18.4-6.5 31.6-24.1 31.6-44.8 0-26.2-21.3-47.5-47.5-47.5s-47.5 21.3-47.5 47.5c0 20.7 13.2 38.2 31.6 44.8v62.9H528.1V92.4c18.4-6.5 31.6-24.1 31.6-44.8 0-26.2-21.3-47.5-47.5-47.5s-47.5 21.3-47.5 47.5c0 20.7 13.2 38.2 31.6 44.8v62.9H369.7V92.4c18.4-6.5 31.6-24.1 31.6-44.8C401.3 21.4 380 0.1 353.8 0.1s-47.5 21.3-47.5 47.5c0 20.7 13.2 38.2 31.6 44.8v62.9h-88.4c-46.4 0-84 37.6-84 84v77.2H92.3c-6.5-18.4-24.1-31.6-44.8-31.6-26.2 0-47.5 21.3-47.5 47.5s21.3 47.5 47.5 47.5c20.7 0 38.2-13.2 44.8-31.6h73.2v88.1H93.3c-6.5-18.4-24.1-31.6-44.8-31.6C22.3 404.7 1 426 1 452.2s21.3 47.5 47.5 47.5c20.7 0 38.2-13.2 44.8-31.6h72.3v88.1H93.3c-6.5-18.4-24.1-31.6-44.8-31.6C22.3 524.7 1 546 1 572.2c0 26.2 21.3 47.5 47.5 47.5 20.7 0 38.2-13.2 44.8-31.6h72.3v88.1H93.3c-6.5-18.4-24.1-31.6-44.8-31.6-26.2 0.1-47.5 21.3-47.5 47.6 0 26.2 21.3 47.5 47.5 47.5 20.7 0 38.2-13.2 44.8-31.6h72.3v77.2c0 46.4 37.6 84 84 84H324v62.4c-18.4 6.5-31.6 24.1-31.6 44.8 0 26.2 21.3 47.5 47.5 47.5s47.5-21.3 47.5-47.5c0-20.7-13.2-38.2-31.6-44.8v-62.4H496v62.4c-18.4 6.5-31.6 24.1-31.6 44.8 0 26.2 21.3 47.5 47.5 47.5s47.5-21.3 47.5-47.5c0-20.7-13.2-38.2-31.6-44.8v-62.4h126.5v62.4c-18.4 6.5-31.6 24.1-31.6 44.8 0 26.2 21.3 47.5 47.5 47.5s47.5-21.3 47.5-47.5c0-20.7-13.2-38.2-31.6-44.8v-62.4h88.8c46.4 0 84-37.6 84-84v-77.4h72.7c6.5 18.4 24.1 31.6 44.8 31.6 26.2 0 47.5-21.3 47.5-47.5s-21.3-47.5-47.5-47.5c-20.7 0-38.2 13.2-44.8 31.6H859V588h72.7c6.5 18.4 24.1 31.6 44.8 31.6 26.2 0 47.5-21.3 47.5-47.5s-21.3-47.5-47.5-47.5c-20.7 0-38.2 13.2-44.8 31.6H859v-88.1h72.7z m44.8-35.6c10.9 0 19.7 8.8 19.7 19.7s-8.8 19.7-19.7 19.7c-10.9 0-19.7-8.8-19.7-19.7s8.8-19.7 19.7-19.7z m0-120c10.9 0 19.7 8.8 19.7 19.7s-8.8 19.7-19.7 19.7c-10.9 0-19.7-8.8-19.7-19.7s8.8-19.7 19.7-19.7zM47.6 352c-10.9 0-19.7-8.8-19.7-19.7s8.8-19.7 19.7-19.7 19.7 8.8 19.7 19.7S58.4 352 47.6 352z m0.9 119.9c-10.9 0-19.7-8.8-19.7-19.7 0-10.9 8.8-19.7 19.7-19.7s19.7 8.8 19.7 19.7c0 10.9-8.8 19.7-19.7 19.7z m0 120c-10.9 0-19.7-8.8-19.7-19.7s8.8-19.7 19.7-19.7 19.7 8.8 19.7 19.7-8.8 19.7-19.7 19.7z m0 120c-10.9 0-19.7-8.8-19.7-19.7s8.8-19.7 19.7-19.7 19.7 8.8 19.7 19.7-8.8 19.7-19.7 19.7zM664.6 47.6c0-10.9 8.8-19.7 19.7-19.7S704 36.7 704 47.6s-8.8 19.7-19.7 19.7-19.7-8.8-19.7-19.7z m-172.2 0c0-10.9 8.8-19.7 19.7-19.7s19.7 8.8 19.7 19.7-8.8 19.7-19.7 19.7-19.7-8.8-19.7-19.7z m-158.3 0c0-10.9 8.8-19.7 19.7-19.7s19.7 8.8 19.7 19.7-8.8 19.7-19.7 19.7-19.7-8.8-19.7-19.7z m25.4 928.7c0 10.9-8.8 19.7-19.7 19.7-10.9 0-19.7-8.8-19.7-19.7s8.8-19.7 19.7-19.7c10.9 0 19.7 8.9 19.7 19.7z m172.2 0c0 10.9-8.8 19.7-19.7 19.7s-19.7-8.8-19.7-19.7 8.8-19.7 19.7-19.7 19.7 8.9 19.7 19.7z m158.3 0c0 10.9-8.8 19.7-19.7 19.7s-19.7-8.8-19.7-19.7 8.8-19.7 19.7-19.7 19.7 8.9 19.7 19.7z m122.9-219.6c0 36.2-29.5 65.7-65.7 65.7H279.9c-36.2 0-65.7-29.5-65.7-65.7V262.8c0-36.2 29.5-65.7 65.7-65.7h467.3c36.2 0 65.7 29.5 65.7 65.7v493.9z m163.6-84.5c10.9 0 19.7 8.8 19.7 19.7s-8.8 19.7-19.7 19.7c-10.9 0-19.7-8.8-19.7-19.7s8.8-19.7 19.7-19.7z m0-119.9c10.9 0 19.7 8.8 19.7 19.7s-8.8 19.7-19.7 19.7c-10.9 0-19.7-8.8-19.7-19.7s8.8-19.7 19.7-19.7z" p-id="13833" fill="#bfbfbf"></path><path d="M747.2 227.1H279.9c-19.7 0-35.7 16-35.7 35.7v493.8c0 19.7 16 35.7 35.7 35.7h467.3c19.7 0 35.7-16 35.7-35.7V262.8c0-19.7-16-35.7-35.7-35.7zM338.5 427.6c0 11.4-9.2 20.6-20.6 20.6s-20.6-9.2-20.6-20.6V307.4c0-11.4 9.2-20.6 20.6-20.6s20.6 9.2 20.6 20.6v120.2z m77.5 0c0 11.4-9.2 20.6-20.6 20.6-11.4 0-20.6-9.2-20.6-20.6V307.4c0-11.4 9.2-20.6 20.6-20.6 11.4 0 20.6 9.2 20.6 20.6v120.2z m36.2 0V307.4c0-11.4 9.2-20.6 20.6-20.6s20.6 9.2 20.6 20.6v120.2c0 11.4-9.2 20.6-20.6 20.6s-20.6-9.2-20.6-20.6z m277.2 264.6c0 19.7-16.1 35.8-35.8 35.8H517.8c-19.7 0-35.8-16.1-35.8-35.8v-113c0-19.7 16.1-35.8 35.8-35.8h175.8c19.7 0 35.8 16.1 35.8 35.8v113z" p-id="13834" fill="#bfbfbf"></path></svg>