<?xml version="1.0" standalone="no"?><!DOCTYPE svg PUBLIC "-//W3C//DTD SVG 1.1//EN" "http://www.w3.org/Graphics/SVG/1.1/DTD/svg11.dtd"><svg t="1577925814424" class="icon" viewBox="0 0 1024 1024" version="1.1" xmlns="http://www.w3.org/2000/svg" p-id="10469" xmlns:xlink="http://www.w3.org/1999/xlink" width="64" height="64"><defs><style type="text/css"></style></defs><path d="M972.363 245.354c-117.518 5.865-114.73 234.134-143.18 315.893-36.742 105.619-128.097 195.82-251.082 159.391-104.74-31.004-173.616-233.402-301.313-156.585-87.498 52.622-131.343 167.667-152.606 263.525-0.208 0.944-0.627 1.781-0.837 2.639v98.895h816.359c17.994 0 32.658 14.642 32.658 32.658s-14.642 32.658-32.658 32.658h-849.017c-18.016 0-32.679-14.642-32.679-32.658v-849.017c0-17.994 14.665-32.658 32.679-32.658 17.994 0 32.658 14.665 32.658 32.658v528.724c23.547-42.775 52.747-81.947 89.153-112.386 110.835-92.4 226.174-27.002 303.117 67.201 48.661 59.637 143.89 98.916 206.4 28.97 48.368-53.982 59.451-133.227 73.59-201.77 21.43-104.131 47.718-237.046 176.654-243.434 42.191-2.095 41.959 63.2 0.105 65.295v0 0zM972.363 245.354z" fill="#03a9f4" p-id="10470"></path></svg>