<?xml version="1.0" standalone="no"?><!DOCTYPE svg PUBLIC "-//W3C//DTD SVG 1.1//EN" "http://www.w3.org/Graphics/SVG/1.1/DTD/svg11.dtd"><svg t="1577925257392" class="icon" viewBox="0 0 1115 1024" version="1.1" xmlns="http://www.w3.org/2000/svg" p-id="5956" xmlns:xlink="http://www.w3.org/1999/xlink" width="17.421875" height="16"><defs><style type="text/css"></style></defs><path d="M173.907173 79.932489c-34.565401 0-61.56962 28.084388-61.56962 61.569621V885.738397c0 34.565401 28.084388 61.56962 61.56962 61.56962H950.548523c34.565401 0 61.56962-28.084388 61.56962-61.56962V141.50211c0-34.565401-28.084388-61.56962-61.56962-61.569621H173.907173z m0-62.649789H950.548523c68.050633 0 124.219409 55.088608 124.219409 124.21941V885.738397c0 68.050633-55.088608 124.219409-124.219409 124.219409H173.907173C105.85654 1008.877637 49.687764 953.78903 49.687764 885.738397V141.50211c0-68.050633 56.168776-124.219409 124.219409-124.21941z m708.590717 210.632912c18.362869 0 33.485232 15.122363 33.485232 33.485232 0 18.362869-15.122363 33.485232-33.485232 33.485232H573.56962c-11.881857 0-22.683544-6.481013-29.164557-17.2827-6.481013-10.801688-6.481013-23.763713 0-33.485233 6.481013-10.801688 17.2827-17.2827 29.164557-17.2827h308.92827v1.080169z m-484.99578-51.848101c14.042194-12.962025 35.64557-11.881857 47.527426 2.160337 12.962025 14.042194 11.881857 35.64557-2.160338 47.527426l-92.894514 84.253165c-11.881857 10.801688-31.324895 11.881857-44.28692 1.080169l-61.569621-50.767933c-12.962025-11.881857-15.122363-32.405063-3.240506-46.447257 11.881857-14.042194 31.324895-16.202532 46.447258-6.481013l38.886075 32.405063 71.29114-63.729957z m484.99578 291.645569c18.362869 0 33.485232 15.122363 33.485232 33.485232 0 18.362869-15.122363 33.485232-33.485232 33.485232H573.56962c-18.362869 0-33.485232-15.122363-33.485232-33.485232 0-18.362869 15.122363-33.485232 33.485232-33.485232h308.92827z m-484.99578-50.767932c14.042194-11.881857 34.565401-10.801688 46.447257 3.240506 11.881857 12.962025 11.881857 34.565401-1.080169 46.447257L349.974684 550.886076c-11.881857 10.801688-31.324895 11.881857-44.28692 1.080169l-61.569621-50.767933c-9.721519-7.561181-14.042194-19.443038-11.881856-31.324894 2.160338-11.881857 9.721519-21.603376 21.603375-25.924051 11.881857-4.320675 23.763713-2.160338 33.485233 5.400844l38.886075 32.405063 71.29114-64.810126z m484.99578 290.565401c18.362869 0 33.485232 15.122363 33.485232 33.485232s-15.122363 33.485232-33.485232 33.485232H265.721519c-18.362869 0-33.485232-15.122363-33.485232-33.485232s15.122363-33.485232 33.485232-33.485232h616.776371z m-42.126582-4.320676" p-id="5957" fill="#d4237a"></path></svg>