<?xml version="1.0" standalone="no"?><!DOCTYPE svg PUBLIC "-//W3C//DTD SVG 1.1//EN" "http://www.w3.org/Graphics/SVG/1.1/DTD/svg11.dtd"><svg t="1577961635764" class="icon" viewBox="0 0 1024 1024" version="1.1" xmlns="http://www.w3.org/2000/svg" p-id="37698" data-darkreader-inline-fill="" xmlns:xlink="http://www.w3.org/1999/xlink" width="64" height="64"><defs><style type="text/css">[data-darkreader-inline-fill] { fill: var(--darkreader-inline-fill)  !important; }
* {  }
</style></defs><path d="M329.18144 809.770667a136.106667 136.106667 0 0 1-38.4 119.168 138.581333 138.581333 0 0 1-195.498667 0 136.661333 136.661333 0 0 1 0-194.389334 137.813333 137.813333 0 0 1 119.850667-38.144c15.146667-15.658667 28.501333-31.274667 40.149333-45.738666a195.157333 195.157333 0 0 0-198.997333 45.738666 191.616 191.616 0 0 0 0 271.317334c75.093333 74.624 197.845333 74.624 272.896 0a190.293333 190.293333 0 0 0 45.952-197.290667c-14.506667 11.008-30.250667 24.874667-45.952 39.338667" fill="#1296db" p-id="37699" data-darkreader-inline-fill="" style="--darkreader-inline-fill:#207baa;"></path><path d="M766.728107 650.112c11.605333 14.464 25.002667 30.08 39.552 46.293333 42.453333-6.4 86.698667 6.357333 119.253333 38.186667a136.661333 136.661333 0 0 1 0 194.346667 138.538667 138.538667 0 0 1-195.456 0 137.557333 137.557333 0 0 1-38.997333-118.613334 674.986667 674.986667 0 0 0-46.506667-39.296 190.762667 190.762667 0 0 0 46.506667 196.693334c75.050667 74.666667 197.802667 74.666667 272.853333 0a191.573333 191.573333 0 0 0 0-271.36C911.026773 643.2 833.62944 628.138667 766.728107 650.154667" fill="#1296db" p-id="37700" data-darkreader-inline-fill="" style="--darkreader-inline-fill:#207baa;"></path><path d="M691.080107 219.136c-6.4-42.24 6.4-86.784 38.4-118.613333a138.581333 138.581333 0 0 1 195.498666 0 136.661333 136.661333 0 0 1 0 194.389333 137.216 137.216 0 0 1-119.296 38.186667c-15.104 16.213333-28.501333 31.829333-40.106666 45.696a195.072 195.072 0 0 0 198.4-45.696 191.616 191.616 0 0 0 0-271.36c-75.093333-74.624-197.845333-74.624-272.896 0A191.232 191.232 0 0 0 645.128107 259.072c13.952-10.965333 29.098667-24.32 45.952-39.893333" fill="#1296db" p-id="37701" data-darkreader-inline-fill="" style="--darkreader-inline-fill:#207baa;"></path><path d="M256.434773 378.24a914.346667 914.346667 0 0 0-41.301333-45.738667 139.52 139.52 0 0 1-120.448-38.186666 136.661333 136.661333 0 0 1 0-194.346667 138.581333 138.581333 0 0 1 195.498667 0 137.216 137.216 0 0 1 38.4 119.722667c15.701333 15.061333 30.848 28.373333 45.952 41.088a192.981333 192.981333 0 0 0-45.354667-198.997334c-75.093333-74.666667-197.845333-74.666667-272.896 0a191.616 191.616 0 0 0 0 271.317334A195.968 195.968 0 0 0 256.434773 378.24" fill="#1296db" p-id="37702" data-darkreader-inline-fill="" style="--darkreader-inline-fill:#207baa;"></path><path d="M576.434773 577.792c-15.701333 15.616-37.248 24.32-59.904 24.32a85.76 85.76 0 0 1-59.946666-24.32 83.754667 83.754667 0 0 1-24.448-59.562667c0-22.016 8.746667-43.946667 24.448-59.605333 15.701333-15.616 37.248-24.32 59.946666-24.32 22.656 0 44.202667 8.704 59.904 23.765333 33.749333 32.981333 33.749333 86.784 0 119.722667m275.797334 214.613333c-1.749333-1.109333-2.901333-2.261333-3.498667-2.858666-44.202667-40.490667-187.904-179.328-185.002667-260.906667v-21.973333c-0.597333-81.578667 141.354667-218.709333 185.002667-259.2 0.597333-0.597333 1.749333-1.706667 3.498667-2.901334 2.304-2.304 10.453333-9.813333 12.202666-12.117333 14.549333-19.114667 14.549333-43.989333-0.554666-59.050667-16.298667-16.213333-43.648-15.018667-62.848 2.346667l-1.152 1.152-0.597334 0.554667c-1.749333 1.749333-9.301333 10.410667-12.8 13.909333-43.093333 45.696-170.453333 174.72-251.349333 180.48-6.4 0.597333-27.946667 0.597333-33.152 0-82.645333-3.456-217.045333-141.141333-257.194667-183.978667a22.058667 22.058667 0 0 1-2.901333-3.413333c-2.304-2.346667-9.856-10.453333-12.202667-12.202667-19.2-14.464-44.202667-14.464-59.349333 0.597334-16.298667 16.213333-15.104 43.392 2.346667 62.464l1.152 1.152 0.597333 0.597333c1.706667 1.706667 10.453333 9.258667 13.952 12.714667 44.8 41.685333 168.704 163.157333 180.906667 243.584 1.194667 8.661333 1.194667 43.946667-1.152 54.954666-16.853333 80.426667-136.106667 196.693333-179.754667 237.226667-3.498667 3.413333-12.245333 10.965333-13.952 12.714667l-0.597333 0.554666c-1.152 0.597333-1.152 1.152-1.152 1.152-17.493333 19.114667-18.645333 46.293333-2.346667 62.464 15.146667 15.061333 40.149333 15.061333 59.349333 0.597334l12.202667-12.16a21.674667 21.674667 0 0 1 2.944-3.413334c38.954667-41.685333 168.106667-174.762667 251.306667-184.021333 7.594667-0.554667 33.749333-0.554667 40.746666 0 80.298667 9.258667 206.506667 136.533333 249.6 182.229333 3.498667 3.498667 11.050667 12.16 12.8 13.909334l0.597334 0.554666c0.554667 1.152 1.152 1.152 1.152 1.152 19.2 17.365333 46.506667 18.517333 62.848 2.346667 15.104-15.061333 15.104-39.936 0.554666-59.008l-12.202666-12.16" fill="#1296db" p-id="37703" data-darkreader-inline-fill="" style="--darkreader-inline-fill:#207baa;"></path></svg>