<?xml version="1.0" standalone="no"?><!DOCTYPE svg PUBLIC "-//W3C//DTD SVG 1.1//EN" "http://www.w3.org/Graphics/SVG/1.1/DTD/svg11.dtd"><svg t="1577929219667" class="icon" viewBox="0 0 1024 1024" version="1.1" xmlns="http://www.w3.org/2000/svg" p-id="22528" xmlns:xlink="http://www.w3.org/1999/xlink" width="64" height="64"><defs><style type="text/css"></style></defs><path d="M253.841549 600.598104c-30.150584 32.658994-55.677206 36.117934-76.507616 116.262856-14.305384 65.681492-5.484182 139.461692 27.533801 180.673211 32.015522-11.564422 58.079499-32.841875 105.545107-44.54628 32.268395-10.557446 71.382423-7.886475 102.499343-12.223698l-159.070635-240.166089zM750.055051 600.598104c30.150584 32.658994 55.677206 36.117934 76.509874 116.262856 14.305384 65.681492 5.48644 139.461692-27.533801 180.673211-32.015522-11.564422-58.077241-32.841875-105.547365-44.54628-32.266137-10.557446-71.380165-7.886475-102.497085-12.223698l159.068377-240.166089z" fill="#FFAEB9" p-id="22529"></path><path d="M733.275125 250.509044c-80.160727-121.374503-224.855986-183.558672-224.855987-183.558671s-161.402937 64.602267-231.742258 190.440428c-38.075442 60.928835-50.477506 154.555047-50.477506 229.44834 0 177.805812 178.968576 407.073528 178.968576 407.073528h199.62062s174.37848-227.583402 174.37848-405.924311c0.216748-79.966556 5.915421-170.508621-45.891925-237.479314z m-230.448543 286.807603c-67.149059 0-121.607056-54.439935-121.607056-121.604798 0-67.169379 54.457997-121.609313 121.607056-121.609313s121.607056 54.439935 121.607056 121.609313c0 67.167121-54.457997 121.604798-121.607056 121.604798z" fill="#FFAEB9" p-id="22530"></path><path d="M502.826582 358.815434c-33.591463 0-60.802399 27.228999-60.802399 60.804657s27.210936 60.804657 60.802399 60.804657c33.593721 0 60.804657-27.228999 60.804657-60.804657 0-33.577916-27.210936-60.804657-60.804657-60.804657z" fill="#FFAEB9" p-id="22531"></path><path d="M590.984416 938.65312a21.399374 21.399374 0 0 1-21.401632 21.401632h-135.26671a21.399374 21.399374 0 0 1-21.401632-21.401632c0-11.828584 9.57079-21.421952 21.401632-21.421952h135.26671c11.830842 0 21.401632 9.593368 21.401632 21.421952z" fill="#FFAEB9" p-id="22532"></path></svg>