<?xml version="1.0" standalone="no"?><!DOCTYPE svg PUBLIC "-//W3C//DTD SVG 1.1//EN" "http://www.w3.org/Graphics/SVG/1.1/DTD/svg11.dtd"><svg t="1577961509043" class="icon" viewBox="0 0 1024 1024" version="1.1" xmlns="http://www.w3.org/2000/svg" p-id="34781" data-darkreader-inline-fill="" xmlns:xlink="http://www.w3.org/1999/xlink" width="64" height="64"><defs><style type="text/css">[data-darkreader-inline-fill] { fill: var(--darkreader-inline-fill)  !important; }
* {  }
</style></defs><path d="M804.864 973.824H198.656c-63.488 0-115.712-52.224-115.712-115.712V167.936c0-63.488 52.224-115.712 115.712-115.712H614.4c15.36 0 27.648 12.288 27.648 27.648 0 15.36-12.288 27.648-27.648 27.648H198.656c-32.768 0-60.416 27.648-60.416 60.416v691.2c0 32.768 27.648 60.416 60.416 60.416h605.184c32.768 0 60.416-27.648 60.416-60.416V396.288c0-15.36 12.288-27.648 27.648-27.648 15.36 0 27.648 12.288 27.648 27.648v460.8c0 64.512-51.2 116.736-114.688 116.736z m0 0" fill="#999999" p-id="34782" data-darkreader-inline-fill="" style="--darkreader-inline-fill:#404445;"></path><path d="M494.592 404.48H242.688c-15.36 0-27.648-12.288-27.648-27.648 0-15.36 12.288-27.648 27.648-27.648h251.904c15.36 0 27.648 12.288 27.648 27.648 0 14.336-13.312 27.648-27.648 27.648z m176.128-45.056c-7.168 0-14.336-2.048-19.456-8.192-10.24-10.24-10.24-28.672 0-38.912l245.76-246.784c10.24-10.24 28.672-10.24 38.912 0s10.24 28.672 0 38.912l-245.76 246.784c-5.12 5.12-12.288 8.192-19.456 8.192z m-15.36 307.2H242.688c-15.36 0-27.648-12.288-27.648-27.648 0-15.36 12.288-27.648 27.648-27.648H655.36c15.36 0 27.648 12.288 27.648 27.648 0 14.336-12.288 27.648-27.648 27.648z m0 0" fill="#999999" p-id="34783" data-darkreader-inline-fill="" style="--darkreader-inline-fill:#404445;"></path></svg>