<?xml version="1.0" standalone="no"?><!DOCTYPE svg PUBLIC "-//W3C//DTD SVG 1.1//EN" "http://www.w3.org/Graphics/SVG/1.1/DTD/svg11.dtd"><svg t="1577926318297" class="icon" viewBox="0 0 1024 1024" version="1.1" xmlns="http://www.w3.org/2000/svg" p-id="17593" xmlns:xlink="http://www.w3.org/1999/xlink" width="64" height="64"><defs><style type="text/css"></style></defs><path d="M101 164.2V413c0 27.7 22.5 50.2 50.2 50.2H400c27.7 0 50.2-22.5 50.2-50.2V164.2c0-27.7-22.5-50.2-50.2-50.2H151.2c-27.7 0-50.2 22.5-50.2 50.2zM341.8 405H209.4c-27.7 0-50.2-22.5-50.2-50.2V222.4c0-27.7 22.5-50.2 50.2-50.2h132.4c27.7 0 50.2 22.5 50.2 50.2v132.4c0 27.7-22.5 50.2-50.2 50.2zM566.6 164.2V413c0 27.7 22.5 50.2 50.2 50.2h248.7c27.7 0 50.2-22.5 50.2-50.2V164.2c0-27.7-22.5-50.2-50.2-50.2H616.8c-27.7 0-50.2 22.5-50.2 50.2zM807.4 405H675c-27.7 0-50.2-22.5-50.2-50.2V222.4c0-27.7 22.5-50.2 50.2-50.2h132.3c27.7 0 50.2 22.5 50.2 50.2v132.3c0.1 27.8-22.4 50.3-50.1 50.3zM566.6 629.6v249.2c0 27.6 22.4 50 50 50h249.2c27.6 0 50-22.4 50-50V629.6c0-27.6-22.4-50-50-50H616.6c-27.6 0-50 22.4-50 50z m241 241H674.8c-27.6 0-50-22.4-50-50V687.8c0-27.6 22.4-50 50-50h132.8c27.6 0 50 22.4 50 50v132.8c0 27.6-22.4 50-50 50zM101 630.1v248.1c0 27.9 22.6 50.5 50.5 50.5h248.1c27.9 0 50.5-22.6 50.5-50.5V630.1c0-27.9-22.6-50.5-50.5-50.5H151.5c-27.9 0-50.5 22.6-50.5 50.5z m240.5 240.5H209.7c-27.9 0-50.5-22.6-50.5-50.5V688.3c0-27.9 22.6-50.5 50.5-50.5h131.7c27.9 0 50.5 22.6 50.5 50.5V820c0.1 28-22.5 50.6-50.4 50.6z" fill="#F2CA00" p-id="17594"></path></svg>