<?xml version="1.0" standalone="no"?><!DOCTYPE svg PUBLIC "-//W3C//DTD SVG 1.1//EN" "http://www.w3.org/Graphics/SVG/1.1/DTD/svg11.dtd"><svg t="1578070023805" class="icon" viewBox="0 0 1024 1024" version="1.1" xmlns="http://www.w3.org/2000/svg" p-id="2120" data-darkreader-inline-fill="" xmlns:xlink="http://www.w3.org/1999/xlink" width="128" height="128"><defs><style type="text/css">[data-darkreader-inline-fill] { fill: var(--darkreader-inline-fill)  !important; }
* {  }
</style></defs><path d="M47.932034 587.165271a297.035952 285.894341 90 1 0 571.788683 0 297.035952 285.894341 90 1 0-571.788683 0Z" fill="#eeb173" p-id="2121" data-darkreader-inline-fill="" style="--darkreader-inline-fill:#794d20;"></path><path d="M511.871128 1023.998804A512.001733 512.001733 0 0 1 312.618133 40.492934 512.001733 512.001733 0 0 1 711.124123 983.812651a508.606003 508.606003 0 0 1-199.252995 40.186153z m0-973.509564C257.321986 50.48924 50.232692 257.578535 50.232692 512.127676S257.321986 973.766113 511.871128 973.766113 973.509564 766.676818 973.509564 512.127676 766.42027 50.48924 511.871128 50.48924z" fill="#eeb173" p-id="2122" data-darkreader-inline-fill="" style="--darkreader-inline-fill:#794d20;"></path><path d="M294.032037 512.127676c0 12.698824-12.055846 23.107038-26.713745 23.107039h-156.123206c-14.698086 0-26.723792-10.388121-26.723792-23.107039 0-12.698824 12.055846-23.107038 26.723792-23.107038h156.123206c14.698086 0 26.713745 10.388121 26.713745 23.107038zM535.681424 911.537854c0 14.688039-10.70961 26.713745-23.810296 26.713746-13.0605 0-23.810296-12.055846-23.810296-26.713746V755.404602c0-14.698086 10.70961-26.713745 23.810296-26.713745 13.0605 0 23.810296 12.055846 23.810296 26.713745zM535.681424 268.217819c0 14.688039-10.70961 26.713745-23.810296 26.713745-13.0605 0-23.810296-12.055846-23.810296-26.713745V112.084567c0-14.688039 10.70961-26.713745 23.810296-26.713746 13.0605 0 23.810296 12.055846 23.810296 26.713746zM914.445966 535.214622h-156.123206c-14.698086 0-26.723792-10.388121-26.723792-23.107039 0-12.698824 12.055846-23.107038 26.723792-23.107038h156.123206c14.698086 0 26.713745 10.388121 26.713745 23.107038s-12.01566 23.107038-26.713745 23.107039z" fill="#eeb173" p-id="2123" data-darkreader-inline-fill="" style="--darkreader-inline-fill:#794d20;"></path></svg>