<?xml version="1.0" standalone="no"?><!DOCTYPE svg PUBLIC "-//W3C//DTD SVG 1.1//EN" "http://www.w3.org/Graphics/SVG/1.1/DTD/svg11.dtd"><svg t="1577927192852" class="icon" viewBox="0 0 1024 1024" version="1.1" xmlns="http://www.w3.org/2000/svg" p-id="21642" xmlns:xlink="http://www.w3.org/1999/xlink" width="64" height="64"><defs><style type="text/css"></style></defs><path d="M853.290667 810.581333v-512h-682.666667V810.666667h682.666667z m0-682.666666a85.333333 85.333333 0 0 1 85.333333 85.333333v597.333333a85.333333 85.333333 0 0 1-85.333333 85.333334h-682.666667a85.333333 85.333333 0 0 1-85.333333-85.333334v-597.333333a85.333333 85.333333 0 0 1 85.333333-85.333333h682.666667zM554.666667 725.333333v-85.333333h213.333333v85.333333h-213.333333z m-145.92-170.24L237.653333 384H358.4l140.885333 140.885333a42.666667 42.666667 0 0 1 0 60.373334L359.168 725.333333H238.506667l170.24-170.24z" p-id="21643" fill="#7dbe68"></path></svg>