<?xml version="1.0" standalone="no"?><!DOCTYPE svg PUBLIC "-//W3C//DTD SVG 1.1//EN" "http://www.w3.org/Graphics/SVG/1.1/DTD/svg11.dtd"><svg t="1577926498591" class="icon" viewBox="0 0 1754 1024" version="1.1" xmlns="http://www.w3.org/2000/svg" p-id="19022" xmlns:xlink="http://www.w3.org/1999/xlink" width="109.625" height="64"><defs><style type="text/css"></style></defs><path d="M1373.568154 332.27503v-9.881785c-123.522316 0-151.932449-13.587455-275.454764 28.410133s-109.934861 85.230398-234.692401 85.230398c-123.522316 0-109.934861-43.232811-234.6924-85.230398s-151.932449-28.410133-274.219542-28.410133v74.113389c123.522316 0 151.932449-13.587455 275.454765 28.410133s109.934861 85.230398 234.6924 85.230398 109.934861-43.232811 234.692401-85.230398 151.932449-28.410133 275.454765-28.410133V265.572979l-1.235224 66.702051z" fill="#DD738C" p-id="19023"></path><path d="M1225.341375 1024H863.420989c-13.587455 0-24.704463-11.117008-24.704463-24.704463s11.117008-24.704463 24.704463-24.704463h361.920386c35.821472 0 69.172497-17.293124 91.406514-46.938481 28.410133-38.291918 38.291918-87.700844 27.17491-134.639324-28.410133-111.170084-85.230398-265.572979-202.576599-368.096502-11.117008-8.646562-6.176116-19.763571 6.176116-23.46924 18.528347-6.176116 7.411339-14.822678 18.528347-6.176116 1.235223 1.235223 16.057901 0 7.411339-7.411339 127.227986 111.170084 188.989144 275.454765 218.6345 392.800965 16.057901 61.761158 2.470446 125.992762-35.821472 176.636912-32.115802 41.997587-80.289505 65.466828-130.933655 66.702051z" fill="#B6BDCC" p-id="19024"></path><path d="M863.420989 1024H501.500603c-50.64415 0-98.817853-24.704463-129.698432-65.466828-38.291918-50.64415-51.879373-114.875754-35.821471-176.636911 29.645356-118.581423 91.406514-282.866104 218.634499-392.800965 9.881785-9.881785 24.704463-9.881785 34.586249 0 9.881785 9.881785 9.881785 24.704463 0 34.586248l-2.470447 2.470446C469.384801 527.44029 411.329312 681.843185 382.91918 793.013269c-12.352232 46.93848-2.470446 96.347407 27.174909 134.639324 20.998794 28.410133 54.349819 46.93848 91.406514 46.938481H864.656212c13.587455 0 24.704463 11.117008 24.704464 24.704463s-12.352232 24.704463-25.939687 24.704463z" fill="#B6BDCC" p-id="19025"></path><path d="M877.008444 534.851628c-83.995175 0-112.405308-17.293124-150.697226-40.762364-30.880579-19.763571-62.996381-34.586248-97.582629-45.703257-93.87696-32.115802-129.698432-30.880579-200.106152-28.410132-20.998794 0-44.468034 1.235223-72.878167 1.235223-13.587455 0-25.939686-11.117008-25.939686-24.704464s11.117008-24.704463 25.939686-24.704463c28.410133 0 50.64415-1.235223 71.642944-1.235223 71.642943-2.470446 116.110977-3.705669 218.634499 30.880579 38.291918 12.352232 74.11339 29.645356 107.464415 50.64415 34.586248 20.998794 54.349819 33.351025 123.522316 33.351025s90.171291-12.352232 123.522316-33.351025c33.351025-20.998794 69.172497-38.291918 107.464415-50.64415 102.523522-34.586248 146.991556-33.351025 218.634499-30.880579 13.587455 0 29.645356 1.235223 46.93848 1.235223v-80.289505c-17.293124 0-32.115802 1.235223-46.93848 1.235223-71.642943 2.470446-116.110977 3.705669-218.634499-30.880579-38.291918-12.352232-74.11339-29.645356-107.464415-51.879373-34.586248-20.998794-54.349819-33.351025-123.522316-33.351025s-90.171291 12.352232-123.522316 33.351025c-33.351025 20.998794-69.172497 38.291918-107.464415 50.64415-102.523522 34.586248-146.991556 33.351025-218.634499 30.880579-20.998794 0-43.232811-1.235223-71.642944-1.235223-13.587455 0-25.939686-11.117008-25.939686-24.704464s11.117008-24.704463 25.939686-24.704463c28.410133 0 51.879373 1.235223 72.878167 1.235223 70.40772 2.470446 106.229192 3.705669 200.106152-28.410132 34.586248-11.117008 66.702051-27.17491 97.582629-45.703257 38.291918-22.234017 66.702051-40.762364 150.697226-40.762364 83.995175 0 112.405308 17.293124 150.697225 40.762364 30.880579 19.763571 62.996381 34.586248 97.58263 45.703257 93.87696 32.115802 129.698432 30.880579 200.106152 28.410132 20.998794 0 44.468034-1.235223 72.878167-1.235223 13.587455 0 25.939686 11.117008 25.939686 24.704463V395.271411c0 13.587455-11.117008 24.704463-25.939686 24.704464-28.410133 0-51.879373-1.235223-72.878167-1.235224-70.40772-2.470446-106.229192-3.705669-200.106152 28.410133-34.586248 11.117008-66.702051 27.17491-97.58263 45.703257-37.056695 23.46924-66.702051 41.997587-150.697225 41.997587z" fill="#15173F" p-id="19026"></path><path d="M1484.738239 532.381182h-19.763571c-49.408926 0-90.171291-40.762364-90.17129-90.171291V138.344994c0-13.587455 11.117008-24.704463 24.704463-24.704463h150.697225c13.587455 0 24.704463 11.117008 24.704464 24.704463v303.864897c0 49.408926-39.527141 90.171291-90.171291 90.171291z m-60.525935-369.331725v279.160434c0 22.234017 18.528347 40.762364 40.762364 40.762365h19.763571c22.234017 0 40.762364-18.528347 40.762364-40.762365V163.049457h-101.288299zM289.04222 532.381182h-19.763571c-49.408926 0-90.171291-40.762364-90.171291-90.171291V138.344994c0-13.587455 11.117008-24.704463 24.704463-24.704463h150.697226c13.587455 0 24.704463 11.117008 24.704463 24.704463v303.864897c0 49.408926-40.762364 90.171291-90.17129 90.171291z m-60.525935-369.331725v279.160434c0 22.234017 18.528347 40.762364 40.762364 40.762365h19.763571c22.234017 0 40.762364-18.528347 40.762364-40.762365V163.049457h-101.288299z" fill="#15173F" p-id="19027"></path><path d="M533.616405 49.408926H24.704463C11.117008 49.408926 0 38.291918 0 24.704463s11.117008-24.704463 24.704463-24.704463h508.911942c13.587455 0 24.704463 11.117008 24.704464 24.704463s-11.117008 24.704463-24.704464 24.704463zM1729.312425 49.408926H1220.400483c-13.587455 0-24.704463-11.117008-24.704464-24.704463s11.117008-24.704463 24.704464-24.704463H1729.312425c13.587455 0 24.704463 11.117008 24.704463 24.704463s-11.117008 24.704463-24.704463 24.704463z" fill="#2896E0" p-id="19028"></path><path d="M936.299156 900.477684H793.013269c-49.408926 0-88.936068-39.527141-88.936068-88.936068V668.25573c0-49.408926 39.527141-88.936068 88.936068-88.936068h142.050663c49.408926 0 88.936068 39.527141 88.936068 88.936068v142.050663c1.235223 49.408926-38.291918 90.171291-87.700844 90.171291z m-143.285887-271.749095c-22.234017 0-39.527141 18.528347-39.527141 39.527141v142.050663c0 22.234017 18.528347 39.527141 39.527141 39.527141h142.050663c22.234017 0 39.527141-18.528347 39.527142-39.527141V668.25573c0-22.234017-18.528347-39.527141-39.527142-39.527141H793.013269z" fill="#B6BDCC" p-id="19029"></path><path d="M864.656212 814.012063c-40.762364 0-74.11339-33.351025-74.113389-74.11339s33.351025-74.11339 74.113389-74.11339 74.11339 33.351025 74.11339 74.11339-33.351025 74.11339-74.11339 74.11339z m0-98.817853c-13.587455 0-24.704463 11.117008-24.704463 24.704463s11.117008 24.704463 24.704463 24.704463 24.704463-11.117008 24.704464-24.704463-11.117008-24.704463-24.704464-24.704463z" fill="#15173F" p-id="19030"></path></svg>