<?xml version="1.0" standalone="no"?><!DOCTYPE svg PUBLIC "-//W3C//DTD SVG 1.1//EN" "http://www.w3.org/Graphics/SVG/1.1/DTD/svg11.dtd"><svg t="1577925618516" class="icon" viewBox="0 0 1024 1024" version="1.1" xmlns="http://www.w3.org/2000/svg" p-id="9060" xmlns:xlink="http://www.w3.org/1999/xlink" width="64" height="64"><defs><style type="text/css"></style></defs><path d="M129.024 933.376C57.856 933.376 0 875.52 0 804.352V219.136c0-71.168 57.856-129.024 129.024-129.024h571.904c71.168 0 128.512 57.856 129.024 129.024V399.36h-45.056V219.648c0-46.08-37.376-83.456-83.456-83.456H129.024c-46.08 0-83.456 37.376-83.456 83.456v585.216c0 46.08 37.376 83.456 83.456 83.456h421.376v45.056H129.024z" p-id="9061" fill="#d81e06"></path><path d="M277.504 376.32c-29.184 0-55.808-16.896-68.608-43.52l-3.072-6.144H142.336c-12.288 0.512-23.04-9.216-23.552-21.504-0.512-12.288 9.216-23.04 21.504-23.552h63.488l2.56-7.168c14.336-39.424 57.856-59.392 96.768-45.056 20.992 7.68 37.376 24.064 45.056 45.056l2.56 7.168h336.384c12.288-0.512 23.04 9.216 23.552 21.504 0.512 12.288-9.216 23.04-21.504 23.552H348.672l-2.56 6.144c-12.288 26.112-38.912 43.008-68.608 43.52z m0-119.808c-24.064 0-44.032 19.456-44.032 44.032s19.456 44.032 44.032 44.032 44.032-19.456 44.032-44.032-19.456-44.032-44.032-44.032z" p-id="9062" fill="#d81e06"></path><path d="M244.224 300.544c0 18.432 14.848 33.28 33.28 33.28s33.28-14.848 33.28-33.28-14.848-33.28-33.28-33.28-33.28 14.848-33.28 33.28z" fill="#d81e06" p-id="9063"></path><path d="M254.976 300.544c0 12.288 10.24 22.528 22.528 22.528s22.528-10.24 22.528-22.528-10.24-22.528-22.528-22.528-22.528 9.728-22.528 22.528z" fill="#d81e06" p-id="9064"></path><path d="M280.064 813.056c-33.28-0.512-62.464-22.016-72.192-53.76l-2.048-7.68H142.848c-10.752 0-19.456-8.704-19.456-19.456s8.704-19.456 19.456-19.456h65.024l3.072-6.144c16.896-38.4 61.44-55.808 99.84-38.912 17.408 7.68 31.232 21.504 38.912 38.912l3.072 6.144h109.568c10.752 0 19.456 8.704 19.456 19.456 0 10.752-8.704 19.456-19.456 19.456h-107.52l-2.048 7.68c-10.24 31.744-39.424 53.76-72.704 53.76z m0-119.808c-24.064 0-44.032 19.456-44.032 44.032s19.456 44.032 44.032 44.032 44.032-19.456 44.032-44.032c0-24.064-19.456-44.032-44.032-44.032z m107.52-98.816c-29.696 0-56.832-17.408-69.12-44.544l-3.072-6.144H142.336c-11.776 0-20.992-9.216-20.992-20.992s9.216-20.992 20.992-20.992h171.008l2.56-7.168c13.312-39.424 56.32-60.416 95.744-47.104 22.016 7.68 39.424 25.088 47.104 47.104l2.56 7.168H496.64c11.776 0 20.992 9.216 20.992 20.992s-9.216 20.992-20.992 20.992h-37.376l-3.072 6.144c-11.776 27.136-38.912 44.544-68.608 44.544z m0-119.808c-24.064 0-44.032 19.456-44.032 44.032 0 24.064 19.456 44.032 44.032 44.032 24.064 0 44.032-19.456 44.032-44.032 0-24.064-19.968-44.032-44.032-44.032z" p-id="9065" fill="#d81e06"></path><path d="M354.304 518.656c0 18.432 14.848 33.28 33.28 33.28s33.28-14.848 33.28-33.28-14.848-33.28-33.28-33.28-33.28 15.36-33.28 33.28z" fill="#d81e06" p-id="9066"></path><path d="M365.056 518.656c0 12.288 10.24 22.528 22.528 22.528 12.288 0 22.528-10.24 22.528-22.528 0-12.288-10.24-22.528-22.528-22.528s-22.528 10.24-22.528 22.528z" fill="#d81e06" p-id="9067"></path><path d="M795.136 768c-47.104 0-84.992-38.4-84.992-84.992s38.4-84.992 84.992-84.992c47.104 0 84.992 38.4 84.992 84.992 0.512 46.592-37.888 84.48-84.992 84.992z m0-125.44c-22.016 0-39.936 17.92-39.936 39.936s17.92 39.936 39.936 39.936 39.936-17.92 39.936-39.936c0.512-22.016-17.408-39.936-39.936-39.936z" p-id="9068" fill="#d81e06"></path><path d="M867.328 894.976c-5.632 0-11.264-2.048-14.848-6.144 0 0-30.208-32.256-57.856-32.256-28.16 0-57.344 31.232-57.856 31.744-5.632 5.632-14.336 7.68-22.016 4.608l-57.344-31.744c-6.656-4.608-9.216-13.312-6.144-20.992v-0.512c3.584-8.704 5.632-17.92 6.144-27.136 0-39.936-32.768-72.192-72.704-72.192h-3.072c-4.096 0-7.68-5.12-9.216-13.312-2.56-14.848-4.608-29.184-4.608-44.544 0.512-14.848 2.048-29.696 4.608-44.032 1.536-8.192 5.632-13.312 9.728-13.312h2.56c39.936 0 72.704-32.256 72.704-72.192-0.512-9.728-2.56-19.456-6.656-28.672l0.512 1.024c-3.072-7.168-0.512-15.872 5.632-20.48l60.928-33.28c2.56-1.024 5.12-1.536 7.168-1.536 5.632 0 10.752 2.048 14.848 6.144 0 0 29.696 30.208 56.832 30.208s56.32-29.696 56.32-30.208c6.144-5.632 14.336-7.168 22.016-4.096l58.88 32.256c6.656 4.608 8.704 13.312 5.632 20.48l0.512-1.024c-4.096 9.216-6.656 18.944-6.656 28.672 0 39.936 32.768 72.704 72.704 72.192h2.048c4.608 0 8.704 5.12 10.24 13.312 2.56 14.848 4.608 29.184 4.608 44.544-0.512 14.848-2.048 29.696-4.608 44.032-1.536 8.192-5.632 13.312-9.728 13.312h-2.56c-39.936 0-72.704 32.256-72.704 72.192 0.512 9.728 2.56 19.456 6.656 28.672l-0.512-1.024c3.072 7.168 1.024 15.872-5.632 20.48l-59.392 32.768c-2.048 1.024-4.608 1.536-7.168 1.536v0.512z m-73.216-83.456c29.184 0 54.784 15.872 71.168 28.16l5.632 4.096 19.968-10.752-1.024-7.168c-0.512-4.608-1.024-9.216-1.024-13.312 0-51.2 33.28-96.768 81.92-111.616l6.656-2.048 0.512-7.168c0-3.072 0.512-6.144 0.512-8.704s0-5.632-0.512-8.704l-0.512-7.168-6.656-2.048c-49.152-15.36-82.432-60.416-82.432-111.616 0-4.608 0.512-9.216 1.024-13.312l1.024-7.168-19.968-10.752-5.632 4.096c-15.872 11.776-40.96 26.112-68.608 26.112s-53.248-14.336-69.632-26.624l-5.632-4.096-21.504 11.776 1.024 7.168c0.512 4.608 1.024 8.704 1.024 13.312 0 51.2-33.28 96.256-82.432 111.616l-6.656 2.048-0.512 7.168c0 3.072-0.512 6.144-0.512 8.704s0 5.632 0.512 8.704l0.512 7.168 6.656 2.048c49.152 15.36 82.432 60.416 82.432 111.616 0 4.608-0.512 9.216-1.024 13.824l-1.024 7.168 17.92 9.728 5.632-4.096c17.408-13.312 43.008-28.16 71.168-28.16z" p-id="9069" fill="#d81e06"></path></svg>