<?xml version="1.0" standalone="no"?><!DOCTYPE svg PUBLIC "-//W3C//DTD SVG 1.1//EN" "http://www.w3.org/Graphics/SVG/1.1/DTD/svg11.dtd"><svg t="1577961183506" class="icon" viewBox="0 0 1107 1024" version="1.1" xmlns="http://www.w3.org/2000/svg" p-id="33656" data-darkreader-inline-fill="" width="69.1875" height="64" xmlns:xlink="http://www.w3.org/1999/xlink"><defs><style type="text/css">[data-darkreader-inline-fill] { fill: var(--darkreader-inline-fill)  !important; }
* {  }
</style></defs><path d="M316.013115 607.685246c-52.878689 0-95.685246-42.806557-95.685246-95.685246s42.806557-95.685246 95.685246-95.685246 95.685246 42.806557 95.685246 95.685246-42.806557 95.685246-95.685246 95.685246z m0-149.403279c-29.796721 0-53.718033 23.921311-53.718033 53.718033s23.921311 53.718033 53.718033 53.718033 53.718033-23.921311 53.718033-53.718033c0-29.796721-23.921311-53.718033-53.718033-53.718033z" fill="#4EC225" p-id="33657" data-darkreader-inline-fill="" style="--darkreader-inline-fill:#47932c;"></path><path d="M570.754098 607.685246c-52.878689 0-95.685246-42.806557-95.685246-95.685246s42.806557-95.685246 95.685246-95.685246 95.685246 42.806557 95.685246 95.685246-42.806557 95.685246-95.685246 95.685246z m0-149.403279c-29.796721 0-53.718033 23.921311-53.718032 53.718033s23.921311 53.718033 53.718032 53.718033 53.718033-23.921311 53.718033-53.718033c0-29.796721-23.921311-53.718033-53.718033-53.718033z" fill="#278ACC" p-id="33658" data-darkreader-inline-fill="" style="--darkreader-inline-fill:#2c6a93;"></path><path d="M825.07541 607.685246c-52.878689 0-95.685246-42.806557-95.685246-95.685246s42.806557-95.685246 95.685246-95.685246 95.685246 42.806557 95.685246 95.685246-42.806557 95.685246-95.685246 95.685246z m0-149.403279c-29.796721 0-53.718033 23.921311-53.718033 53.718033s23.921311 53.718033 53.718033 53.718033 53.718033-23.921311 53.718033-53.718033c0-29.796721-23.921311-53.718033-53.718033-53.718033z" fill="#4EC225" p-id="33659" data-darkreader-inline-fill="" style="--darkreader-inline-fill:#47932c;"></path></svg>